PathFileType	4	(X/Y/Z)	c:/Users/goper/Files/vsCode/490R/osim_files/C07/C07_SSWS_03.trc
DataRate	CameraRate	NumFrames	NumMarkers	Units                	OrigDataRate	OrigDataStartFrame	OrigNumFrames
250.00	250.00	6	36	mm	250.0	2181	3489
                Frame#	Time	LPSIS			LASIS			LTH1			LTH2			LTH3			LTH4			LLFE			LMFE			LSH1			LSH2			LSH3			LSH4			LLMAL			LMMAL			LCAL			LMTP5			LTOE			LMTP1			RPSIS			RASIS			RTH1			RTH2			RTH3			RTH4			RLFE			RMFE			RSH1			RSH2			RSH3			RSH4			RLMAL			RMMAL			RCAL			RMTP1			RTOE			RMTP5		
		X1	Y1	Z1	X2	Y2	Z2	X3	Y3	Z3	X4	Y4	Z4	X5	Y5	Z5	X6	Y6	Z6	X7	Y7	Z7	X8	Y8	Z8	X9	Y9	Z9	X10	Y10	Z10	X11	Y11	Z11	X12	Y12	Z12	X13	Y13	Z13	X14	Y14	Z14	X15	Y15	Z15	X16	Y16	Z16	X17	Y17	Z17	X18	Y18	Z18	X19	Y19	Z19	X20	Y20	Z20	X21	Y21	Z21	X22	Y22	Z22	X23	Y23	Z23	X24	Y24	Z24	X25	Y25	Z25	X26	Y26	Z26	X27	Y27	Z27	X28	Y28	Z28	X29	Y29	Z29	X30	Y30	Z30	X31	Y31	Z31	X32	Y32	Z32	X33	Y33	Z33	X34	Y34	Z34	X35	Y35	Z35	X36	Y36	Z36

2181	8.72000	-1154.50671	973.92010	305.79071	-1325.61719	955.62695	375.69131	-1315.45349	753.06097	424.07050	-1352.27563	683.84027	417.69830	-1390.33594	619.86688	403.03812	-1421.69824	723.61926	402.81253	-1423.80139	505.11719	374.33743	-1428.35547	496.60376	254.52483	-1458.68726	316.56119	379.31912	-1457.72998	270.00058	362.22510	-1494.23608	334.54343	367.00131	-1505.16602	291.41983	359.01093	-1517.63318	100.35055	321.98666	-1535.12451	133.18057	251.83841	-1474.88965	38.75298	274.14261	-1661.60657	54.67789	331.28656	-1708.14880	88.13509	277.90042	-1675.77368	72.07986	227.44669	-1157.10583	985.76489	205.56561	-1313.39319	947.07678	118.26061	-1231.20703	805.91870	69.01139	-1212.31030	728.84814	75.29263	-1191.25171	650.98798	88.91423	-1281.88220	714.75238	106.02785	-1121.24731	485.90652	133.70093	-1133.00110	497.87189	243.30266	-982.80554	348.16412	138.11427	-987.51825	294.44342	133.73193	-1038.20679	322.56146	136.20567	-1017.36798	283.45129	143.67641	-888.38745	145.59349	198.24689	-925.78595	148.68040	272.53134	-827.36401	108.74979	252.46896	-1020.95831	41.63401	275.88663	-1040.11169	48.32336	229.30893	-992.36835	38.97915	168.60167
2182	8.72400	-1160.33130	974.01526	305.92996	-1331.71411	955.52039	375.24890	-1321.27258	753.06042	423.46967	-1358.04858	683.73364	416.72882	-1395.82239	619.85297	401.90881	-1427.64990	723.43365	401.95898	-1429.26917	505.07404	373.58456	-1433.07117	496.16776	253.79298	-1463.17725	316.31540	378.22476	-1462.14807	269.90860	361.04745	-1499.08215	334.17581	366.21851	-1509.85254	291.06461	358.44501	-1520.56348	100.05525	321.74924	-1537.95703	132.39343	251.32086	-1476.06372	39.59280	274.02313	-1662.94263	52.16281	330.25552	-1710.45068	84.47659	276.76645	-1677.10706	69.08794	226.37311	-1162.73206	985.70667	205.61383	-1318.69495	946.77386	117.89945	-1236.23523	805.71936	68.73492	-1217.38196	728.66992	74.89507	-1196.41272	650.77789	88.41637	-1287.05310	714.53632	105.49281	-1126.45056	485.64801	132.85851	-1138.81335	497.47855	242.44591	-986.60388	349.29251	137.73642	-990.70453	295.37085	133.19980	-1041.80542	323.06897	135.50528	-1020.56140	284.19348	142.96898	-890.29736	147.67064	197.56604	-927.86731	150.31419	271.59714	-828.93732	111.72495	252.00882	-1021.12079	41.74656	275.72787	-1040.28564	48.29581	229.14958	-992.64136	38.98472	168.50278
2183	8.72800	-1166.03577	974.23383	306.00885	-1337.68066	955.46906	374.67883	-1327.46497	753.15729	422.78302	-1363.83789	683.76465	415.97180	-1401.64343	619.71161	400.89978	-1433.63123	723.21008	401.03183	-1434.90759	505.13812	372.93234	-1437.78467	495.82724	253.31631	-1467.94995	316.47153	377.68652	-1466.71777	269.92578	360.65533	-1503.94214	334.27969	366.08572	-1514.54321	290.72369	358.13846	-1523.18750	99.77211	321.57587	-1540.42676	131.60237	250.93506	-1476.95142	40.33854	273.84296	-1664.30286	49.87771	329.35724	-1712.28296	80.70835	275.91565	-1678.64307	65.76932	225.72862	-1168.40979	985.63684	205.74799	-1325.24976	946.82764	117.54757	-1241.44031	805.59515	68.51762	-1222.55627	728.52814	74.52132	-1202.22913	650.34851	88.20383	-1292.36926	714.31348	104.93633	-1131.83484	485.27652	131.90016	-1144.62891	496.96140	241.63762	-990.51013	350.46707	137.25751	-992.84222	296.36401	134.24553	-1045.47388	323.60144	134.69258	-1023.75983	284.99350	142.19684	-892.43433	149.63274	196.92390	-930.25989	152.05992	270.89896	-830.67657	114.82594	251.58507	-1021.38318	41.81224	275.66718	-1040.65356	48.34642	228.96576	-992.89374	39.03335	168.40276
2184	8.73200	-1171.91626	974.42664	306.15280	-1343.62085	955.44739	374.12695	-1333.56885	753.39783	422.29797	-1369.68359	683.81116	415.22443	-1407.07495	619.68091	400.15237	-1439.52820	723.16595	399.97687	-1440.43164	505.17783	372.52353	-1442.46082	495.50717	252.89116	-1472.83423	316.73389	377.16962	-1471.37122	270.26889	360.43256	-1508.87463	334.38760	365.85538	-1519.47791	290.66864	358.11487	-1525.49963	99.57626	321.47156	-1542.80359	130.89816	250.67316	-1477.79590	40.91983	273.79935	-1665.36816	47.49520	328.84164	-1714.07874	76.83396	274.97464	-1679.92126	62.36944	225.02817	-1174.13428	985.65039	205.85663	-1330.66565	946.74487	117.27081	-1246.68689	805.49347	68.41786	-1227.84326	728.44659	74.16964	-1207.46619	650.24750	87.56370	-1297.67346	714.20850	104.21899	-1137.55798	484.99619	130.85884	-1150.82166	496.27664	240.68672	-994.70630	351.63794	136.73309	-996.55469	297.45712	133.43462	-1049.27625	324.23193	133.81256	-1027.18079	285.78705	141.38873	-894.58820	151.90050	196.23524	-932.82568	153.88776	270.16190	-832.68170	118.08912	251.18132	-1021.69684	41.87708	275.53363	-1041.09351	48.47190	228.88644	-993.20197	39.09234	168.31033
2185	8.73600	-1177.69666	974.75507	306.32224	-1349.76184	955.68829	373.53931	-1339.41528	753.59570	421.81995	-1375.63220	683.99152	414.71527	-1412.81348	619.76813	399.47202	-1445.31958	723.14600	398.70685	-1446.28015	505.32867	372.03287	-1447.07410	495.27646	252.59415	-1477.68347	317.09073	377.08459	-1475.85950	270.46951	360.36789	-1513.93018	334.20602	365.48059	-1524.10107	290.57541	358.08807	-1527.50110	99.39036	321.24387	-1544.99475	130.20497	250.33740	-1478.45544	41.46266	273.78751	-1665.91382	44.55896	327.82596	-1715.65161	72.85997	274.29962	-1681.07861	59.17353	224.49416	-1179.75867	985.73883	205.87039	-1335.94580	946.67023	116.93638	-1251.78064	805.51624	68.14962	-1233.09790	728.37781	73.75477	-1212.78210	650.23187	86.87773	-1303.17773	714.06042	103.59111	-1143.44177	484.63956	129.83591	-1157.21436	495.72769	239.83211	-998.94427	352.94199	136.11681	-1000.23096	298.69803	132.65912	-1053.34766	324.79294	132.96605	-1030.90491	286.67209	140.50661	-897.04688	154.14146	195.52483	-935.64874	155.71912	269.26105	-834.79883	121.48455	250.68071	-1021.96936	41.94584	275.40887	-1041.58960	48.61876	228.79681	-993.56244	39.17056	168.22964
2186	8.74000	-1183.42346	975.09906	306.36786	-1355.74536	955.82111	372.96976	-1345.49121	753.97833	421.45966	-1381.38428	684.16211	414.25040	-1418.40527	619.86981	399.06998	-1451.08582	723.12170	397.25031	-1452.18872	505.59860	371.72873	-1451.53540	494.92868	252.36687	-1482.63770	317.50333	377.29041	-1480.35718	270.91620	360.74625	-1519.12537	334.16620	365.06113	-1528.59167	290.43222	357.85352	-1529.28442	99.24269	321.08319	-1547.10034	129.62785	249.98370	-1478.96606	41.85836	273.71576	-1667.19543	42.94062	328.17581	-1717.10840	69.13211	273.93405	-1682.12000	56.16531	224.20866	-1185.24561	985.89258	205.77547	-1341.28552	946.65735	116.62183	-1257.15186	805.48914	67.97109	-1238.59668	728.34637	73.37455	-1218.12549	650.25067	85.97256	-1308.73254	714.06323	102.88715	-1149.48572	484.26404	128.57507	-1163.72632	495.16809	238.95242	-1003.65594	354.21481	135.56837	-1004.13397	299.91226	131.73538	-1057.50854	325.49271	131.96999	-1034.67871	287.59793	139.48186	-899.62756	156.43976	194.65112	-938.52783	157.55118	268.17831	-837.16309	125.06303	250.18947	-1022.24628	41.97078	275.28537	-1041.56372	49.09047	229.30780	-993.95679	39.24642	168.15007
